<mxfile host="app.diagrams.net" agent="Mozilla/5.0 (Windows NT 10.0; Win64; x64) AppleWebKit/537.36 (KHTML, like Gecko) Chrome/129.0.0.0 Safari/537.36" version="24.7.16">
  <diagram name="Página-1" id="iztAj0njowZ3JJKUc7U6">
    <mxGraphModel dx="1050" dy="522" grid="1" gridSize="10" guides="1" tooltips="1" connect="1" arrows="1" fold="1" page="1" pageScale="1" pageWidth="827" pageHeight="1169" math="0" shadow="0">
      <root>
        <mxCell id="0" />
        <mxCell id="1" parent="0" />
        <mxCell id="K2zvp9Cle3BON6LFUC2D-2" value="Processo de login de usuário&amp;nbsp;" style="swimlane;html=1;childLayout=stackLayout;resizeParent=1;resizeParentMax=0;horizontal=1;startSize=20;horizontalStack=0;whiteSpace=wrap;" vertex="1" parent="1">
          <mxGeometry x="10" y="60" width="1160" height="790" as="geometry" />
        </mxCell>
        <mxCell id="K2zvp9Cle3BON6LFUC2D-3" value="usuário&amp;nbsp;" style="swimlane;html=1;startSize=20;horizontal=0;" vertex="1" parent="K2zvp9Cle3BON6LFUC2D-2">
          <mxGeometry y="20" width="1160" height="260" as="geometry" />
        </mxCell>
        <mxCell id="K2zvp9Cle3BON6LFUC2D-12" value="" style="edgeStyle=orthogonalEdgeStyle;rounded=0;orthogonalLoop=1;jettySize=auto;html=1;fillColor=#f8cecc;strokeColor=#b85450;" edge="1" parent="K2zvp9Cle3BON6LFUC2D-3" source="K2zvp9Cle3BON6LFUC2D-8" target="K2zvp9Cle3BON6LFUC2D-11">
          <mxGeometry relative="1" as="geometry" />
        </mxCell>
        <mxCell id="K2zvp9Cle3BON6LFUC2D-8" value="" style="points=[[0.145,0.145,0],[0.5,0,0],[0.855,0.145,0],[1,0.5,0],[0.855,0.855,0],[0.5,1,0],[0.145,0.855,0],[0,0.5,0]];shape=mxgraph.bpmn.event;html=1;verticalLabelPosition=bottom;labelBackgroundColor=#ffffff;verticalAlign=top;align=center;perimeter=ellipsePerimeter;outlineConnect=0;aspect=fixed;outline=standard;symbol=general;" vertex="1" parent="K2zvp9Cle3BON6LFUC2D-3">
          <mxGeometry x="40" y="40" width="40" height="40" as="geometry" />
        </mxCell>
        <mxCell id="K2zvp9Cle3BON6LFUC2D-14" value="" style="edgeStyle=orthogonalEdgeStyle;rounded=0;orthogonalLoop=1;jettySize=auto;html=1;fillColor=#f8cecc;strokeColor=#b85450;" edge="1" parent="K2zvp9Cle3BON6LFUC2D-3" source="K2zvp9Cle3BON6LFUC2D-11" target="K2zvp9Cle3BON6LFUC2D-13">
          <mxGeometry relative="1" as="geometry" />
        </mxCell>
        <mxCell id="K2zvp9Cle3BON6LFUC2D-11" value="Acessar Portal da Empresa" style="whiteSpace=wrap;html=1;verticalAlign=top;labelBackgroundColor=#ffffff;" vertex="1" parent="K2zvp9Cle3BON6LFUC2D-3">
          <mxGeometry x="120" y="30" width="120" height="60" as="geometry" />
        </mxCell>
        <mxCell id="K2zvp9Cle3BON6LFUC2D-17" style="edgeStyle=orthogonalEdgeStyle;rounded=0;orthogonalLoop=1;jettySize=auto;html=1;entryX=0;entryY=0.5;entryDx=0;entryDy=0;fillColor=#f8cecc;strokeColor=#b85450;" edge="1" parent="K2zvp9Cle3BON6LFUC2D-3" source="K2zvp9Cle3BON6LFUC2D-13" target="K2zvp9Cle3BON6LFUC2D-15">
          <mxGeometry relative="1" as="geometry">
            <Array as="points">
              <mxPoint x="480" y="70" />
              <mxPoint x="480" y="70" />
            </Array>
          </mxGeometry>
        </mxCell>
        <mxCell id="K2zvp9Cle3BON6LFUC2D-122" style="edgeStyle=orthogonalEdgeStyle;rounded=0;orthogonalLoop=1;jettySize=auto;html=1;" edge="1" parent="K2zvp9Cle3BON6LFUC2D-3" source="K2zvp9Cle3BON6LFUC2D-13">
          <mxGeometry relative="1" as="geometry">
            <mxPoint x="590" y="150" as="targetPoint" />
          </mxGeometry>
        </mxCell>
        <mxCell id="K2zvp9Cle3BON6LFUC2D-13" value="Acessar o link&lt;div&gt;de login&lt;/div&gt;&lt;div&gt;&lt;br&gt;&lt;/div&gt;" style="whiteSpace=wrap;html=1;verticalAlign=top;labelBackgroundColor=#ffffff;" vertex="1" parent="K2zvp9Cle3BON6LFUC2D-3">
          <mxGeometry x="320" y="30" width="120" height="60" as="geometry" />
        </mxCell>
        <mxCell id="K2zvp9Cle3BON6LFUC2D-15" value="informar Usuário e Senha" style="whiteSpace=wrap;html=1;verticalAlign=top;labelBackgroundColor=#ffffff;" vertex="1" parent="K2zvp9Cle3BON6LFUC2D-3">
          <mxGeometry x="620" y="40" width="120" height="60" as="geometry" />
        </mxCell>
        <mxCell id="K2zvp9Cle3BON6LFUC2D-39" value="" style="points=[[0.145,0.145,0],[0.5,0,0],[0.855,0.145,0],[1,0.5,0],[0.855,0.855,0],[0.5,1,0],[0.145,0.855,0],[0,0.5,0]];shape=mxgraph.bpmn.event;html=1;verticalLabelPosition=bottom;labelBackgroundColor=#ffffff;verticalAlign=top;align=center;perimeter=ellipsePerimeter;outlineConnect=0;aspect=fixed;outline=end;symbol=terminate2;" vertex="1" parent="K2zvp9Cle3BON6LFUC2D-3">
          <mxGeometry x="860" y="60" width="50" height="50" as="geometry" />
        </mxCell>
        <mxCell id="K2zvp9Cle3BON6LFUC2D-88" style="edgeStyle=orthogonalEdgeStyle;rounded=0;orthogonalLoop=1;jettySize=auto;html=1;entryX=0;entryY=0.5;entryDx=0;entryDy=0;" edge="1" parent="K2zvp9Cle3BON6LFUC2D-3" source="K2zvp9Cle3BON6LFUC2D-62" target="K2zvp9Cle3BON6LFUC2D-86">
          <mxGeometry relative="1" as="geometry" />
        </mxCell>
        <mxCell id="K2zvp9Cle3BON6LFUC2D-62" value="Desbloquear Usuário&amp;nbsp;" style="whiteSpace=wrap;html=1;verticalAlign=top;labelBackgroundColor=#ffffff;" vertex="1" parent="K2zvp9Cle3BON6LFUC2D-3">
          <mxGeometry x="95" y="110" width="120" height="60" as="geometry" />
        </mxCell>
        <mxCell id="K2zvp9Cle3BON6LFUC2D-78" style="edgeStyle=orthogonalEdgeStyle;rounded=0;orthogonalLoop=1;jettySize=auto;html=1;" edge="1" parent="K2zvp9Cle3BON6LFUC2D-3" source="K2zvp9Cle3BON6LFUC2D-67">
          <mxGeometry relative="1" as="geometry">
            <mxPoint x="80" y="290" as="targetPoint" />
          </mxGeometry>
        </mxCell>
        <mxCell id="K2zvp9Cle3BON6LFUC2D-81" value="Não&amp;nbsp;" style="edgeLabel;html=1;align=center;verticalAlign=middle;resizable=0;points=[];" vertex="1" connectable="0" parent="K2zvp9Cle3BON6LFUC2D-78">
          <mxGeometry x="0.1794" relative="1" as="geometry">
            <mxPoint as="offset" />
          </mxGeometry>
        </mxCell>
        <mxCell id="K2zvp9Cle3BON6LFUC2D-83" style="edgeStyle=orthogonalEdgeStyle;rounded=0;orthogonalLoop=1;jettySize=auto;html=1;" edge="1" parent="K2zvp9Cle3BON6LFUC2D-3" source="K2zvp9Cle3BON6LFUC2D-67" target="K2zvp9Cle3BON6LFUC2D-62">
          <mxGeometry relative="1" as="geometry" />
        </mxCell>
        <mxCell id="K2zvp9Cle3BON6LFUC2D-84" value="Sim" style="edgeLabel;html=1;align=center;verticalAlign=middle;resizable=0;points=[];" vertex="1" connectable="0" parent="K2zvp9Cle3BON6LFUC2D-83">
          <mxGeometry x="-0.3846" y="-2" relative="1" as="geometry">
            <mxPoint x="1" as="offset" />
          </mxGeometry>
        </mxCell>
        <mxCell id="K2zvp9Cle3BON6LFUC2D-67" value="" style="points=[[0.25,0.25,0],[0.5,0,0],[0.75,0.25,0],[1,0.5,0],[0.75,0.75,0],[0.5,1,0],[0.25,0.75,0],[0,0.5,0]];shape=mxgraph.bpmn.gateway2;html=1;verticalLabelPosition=bottom;labelBackgroundColor=#ffffff;verticalAlign=top;align=center;perimeter=rhombusPerimeter;outlineConnect=0;outline=none;symbol=none;gwType=exclusive;direction=east;" vertex="1" parent="K2zvp9Cle3BON6LFUC2D-3">
          <mxGeometry x="130" y="200" width="50" height="45" as="geometry" />
        </mxCell>
        <mxCell id="K2zvp9Cle3BON6LFUC2D-89" style="edgeStyle=orthogonalEdgeStyle;rounded=0;orthogonalLoop=1;jettySize=auto;html=1;" edge="1" parent="K2zvp9Cle3BON6LFUC2D-3" source="K2zvp9Cle3BON6LFUC2D-86">
          <mxGeometry relative="1" as="geometry">
            <mxPoint x="370" y="100" as="targetPoint" />
          </mxGeometry>
        </mxCell>
        <mxCell id="K2zvp9Cle3BON6LFUC2D-86" value="Trocar a Senha Antes&lt;div&gt;do Bloqueio&lt;/div&gt;" style="whiteSpace=wrap;html=1;verticalAlign=top;labelBackgroundColor=#ffffff;" vertex="1" parent="K2zvp9Cle3BON6LFUC2D-3">
          <mxGeometry x="290" y="150" width="120" height="60" as="geometry" />
        </mxCell>
        <mxCell id="K2zvp9Cle3BON6LFUC2D-120" value="" style="points=[[0.145,0.145,0],[0.5,0,0],[0.855,0.145,0],[1,0.5,0],[0.855,0.855,0],[0.5,1,0],[0.145,0.855,0],[0,0.5,0]];shape=mxgraph.bpmn.event;html=1;verticalLabelPosition=bottom;labelBackgroundColor=#ffffff;verticalAlign=top;align=center;perimeter=ellipsePerimeter;outlineConnect=0;aspect=fixed;outline=catching;symbol=link;" vertex="1" parent="K2zvp9Cle3BON6LFUC2D-3">
          <mxGeometry x="470" y="130" width="50" height="50" as="geometry" />
        </mxCell>
        <mxCell id="K2zvp9Cle3BON6LFUC2D-121" style="edgeStyle=orthogonalEdgeStyle;rounded=0;orthogonalLoop=1;jettySize=auto;html=1;entryX=0.82;entryY=0.96;entryDx=0;entryDy=0;entryPerimeter=0;" edge="1" parent="K2zvp9Cle3BON6LFUC2D-3" source="K2zvp9Cle3BON6LFUC2D-120" target="K2zvp9Cle3BON6LFUC2D-13">
          <mxGeometry relative="1" as="geometry">
            <Array as="points">
              <mxPoint x="418" y="130" />
            </Array>
          </mxGeometry>
        </mxCell>
        <mxCell id="K2zvp9Cle3BON6LFUC2D-123" value="informar Usuário e Senha Temporária&amp;nbsp;" style="whiteSpace=wrap;html=1;verticalAlign=top;labelBackgroundColor=#ffffff;" vertex="1" parent="K2zvp9Cle3BON6LFUC2D-3">
          <mxGeometry x="530" y="150" width="120" height="60" as="geometry" />
        </mxCell>
        <mxCell id="K2zvp9Cle3BON6LFUC2D-19" value="" style="edgeStyle=orthogonalEdgeStyle;rounded=0;orthogonalLoop=1;jettySize=auto;html=1;fillColor=#f8cecc;strokeColor=#b85450;" edge="1" parent="K2zvp9Cle3BON6LFUC2D-2" source="K2zvp9Cle3BON6LFUC2D-15" target="K2zvp9Cle3BON6LFUC2D-18">
          <mxGeometry relative="1" as="geometry">
            <Array as="points">
              <mxPoint x="670" y="320" />
              <mxPoint x="340" y="320" />
            </Array>
          </mxGeometry>
        </mxCell>
        <mxCell id="K2zvp9Cle3BON6LFUC2D-40" style="edgeStyle=orthogonalEdgeStyle;rounded=0;orthogonalLoop=1;jettySize=auto;html=1;entryX=0.5;entryY=1;entryDx=0;entryDy=0;entryPerimeter=0;fillColor=#f8cecc;strokeColor=#b85450;" edge="1" parent="K2zvp9Cle3BON6LFUC2D-2" source="K2zvp9Cle3BON6LFUC2D-37" target="K2zvp9Cle3BON6LFUC2D-39">
          <mxGeometry relative="1" as="geometry" />
        </mxCell>
        <mxCell id="K2zvp9Cle3BON6LFUC2D-6" value="tela de login" style="swimlane;html=1;startSize=20;horizontal=0;" vertex="1" parent="K2zvp9Cle3BON6LFUC2D-2">
          <mxGeometry y="280" width="1160" height="210" as="geometry" />
        </mxCell>
        <mxCell id="K2zvp9Cle3BON6LFUC2D-18" value="Receber Usuário e&amp;nbsp;&lt;div&gt;Senha&lt;/div&gt;" style="whiteSpace=wrap;html=1;verticalAlign=top;labelBackgroundColor=#ffffff;" vertex="1" parent="K2zvp9Cle3BON6LFUC2D-6">
          <mxGeometry x="280" y="82.5" width="120" height="60" as="geometry" />
        </mxCell>
        <mxCell id="K2zvp9Cle3BON6LFUC2D-37" value="Mostra Tela Principal" style="whiteSpace=wrap;html=1;verticalAlign=top;labelBackgroundColor=#ffffff;" vertex="1" parent="K2zvp9Cle3BON6LFUC2D-6">
          <mxGeometry x="740" y="85" width="120" height="60" as="geometry" />
        </mxCell>
        <mxCell id="K2zvp9Cle3BON6LFUC2D-24" value="" style="edgeStyle=orthogonalEdgeStyle;rounded=0;orthogonalLoop=1;jettySize=auto;html=1;fillColor=#f8cecc;strokeColor=#b85450;" edge="1" parent="K2zvp9Cle3BON6LFUC2D-6" source="K2zvp9Cle3BON6LFUC2D-20" target="K2zvp9Cle3BON6LFUC2D-23">
          <mxGeometry relative="1" as="geometry" />
        </mxCell>
        <mxCell id="K2zvp9Cle3BON6LFUC2D-25" value="Sim&amp;nbsp;" style="edgeLabel;html=1;align=center;verticalAlign=middle;resizable=0;points=[];" vertex="1" connectable="0" parent="K2zvp9Cle3BON6LFUC2D-24">
          <mxGeometry x="-0.0067" y="1" relative="1" as="geometry">
            <mxPoint as="offset" />
          </mxGeometry>
        </mxCell>
        <mxCell id="K2zvp9Cle3BON6LFUC2D-20" value="Usuário Válido?" style="points=[[0.25,0.25,0],[0.5,0,0],[0.75,0.25,0],[1,0.5,0],[0.75,0.75,0],[0.5,1,0],[0.25,0.75,0],[0,0.5,0]];shape=mxgraph.bpmn.gateway2;html=1;verticalLabelPosition=bottom;labelBackgroundColor=#ffffff;verticalAlign=top;align=center;perimeter=rhombusPerimeter;outlineConnect=0;outline=none;symbol=none;gwType=exclusive;direction=east;" vertex="1" parent="K2zvp9Cle3BON6LFUC2D-6">
          <mxGeometry x="490" y="90" width="50" height="45" as="geometry" />
        </mxCell>
        <mxCell id="K2zvp9Cle3BON6LFUC2D-23" value="Senha Válida&amp;nbsp;" style="points=[[0.25,0.25,0],[0.5,0,0],[0.75,0.25,0],[1,0.5,0],[0.75,0.75,0],[0.5,1,0],[0.25,0.75,0],[0,0.5,0]];shape=mxgraph.bpmn.gateway2;html=1;verticalLabelPosition=bottom;labelBackgroundColor=#ffffff;verticalAlign=top;align=center;perimeter=rhombusPerimeter;outlineConnect=0;outline=none;symbol=none;gwType=exclusive;" vertex="1" parent="K2zvp9Cle3BON6LFUC2D-6">
          <mxGeometry x="605" y="92.5" width="50" height="45" as="geometry" />
        </mxCell>
        <mxCell id="K2zvp9Cle3BON6LFUC2D-30" style="edgeStyle=orthogonalEdgeStyle;rounded=0;orthogonalLoop=1;jettySize=auto;html=1;fillColor=#f8cecc;strokeColor=#b85450;" edge="1" parent="K2zvp9Cle3BON6LFUC2D-6" source="K2zvp9Cle3BON6LFUC2D-20">
          <mxGeometry relative="1" as="geometry">
            <mxPoint x="515" y="258" as="targetPoint" />
            <Array as="points">
              <mxPoint x="515" y="227.5" />
              <mxPoint x="515" y="227.5" />
            </Array>
          </mxGeometry>
        </mxCell>
        <mxCell id="K2zvp9Cle3BON6LFUC2D-32" value="Não&amp;nbsp;" style="edgeLabel;html=1;align=center;verticalAlign=middle;resizable=0;points=[];" vertex="1" connectable="0" parent="K2zvp9Cle3BON6LFUC2D-30">
          <mxGeometry x="-0.008" y="-1" relative="1" as="geometry">
            <mxPoint as="offset" />
          </mxGeometry>
        </mxCell>
        <mxCell id="K2zvp9Cle3BON6LFUC2D-35" style="edgeStyle=orthogonalEdgeStyle;rounded=0;orthogonalLoop=1;jettySize=auto;html=1;entryX=1;entryY=0.5;entryDx=0;entryDy=0;entryPerimeter=0;fillColor=#f8cecc;strokeColor=#b85450;" edge="1" parent="K2zvp9Cle3BON6LFUC2D-6" source="K2zvp9Cle3BON6LFUC2D-23">
          <mxGeometry relative="1" as="geometry">
            <mxPoint x="540" y="282.5" as="targetPoint" />
            <Array as="points">
              <mxPoint x="630" y="282.5" />
            </Array>
          </mxGeometry>
        </mxCell>
        <mxCell id="K2zvp9Cle3BON6LFUC2D-36" value="Não&amp;nbsp;" style="edgeLabel;html=1;align=center;verticalAlign=middle;resizable=0;points=[];" vertex="1" connectable="0" parent="K2zvp9Cle3BON6LFUC2D-35">
          <mxGeometry x="-0.5364" y="-1" relative="1" as="geometry">
            <mxPoint as="offset" />
          </mxGeometry>
        </mxCell>
        <mxCell id="K2zvp9Cle3BON6LFUC2D-49" style="edgeStyle=orthogonalEdgeStyle;rounded=0;orthogonalLoop=1;jettySize=auto;html=1;fillColor=#f8cecc;strokeColor=#b85450;" edge="1" parent="K2zvp9Cle3BON6LFUC2D-6">
          <mxGeometry relative="1" as="geometry">
            <mxPoint x="335" y="150" as="targetPoint" />
            <mxPoint x="335" y="257.5" as="sourcePoint" />
          </mxGeometry>
        </mxCell>
        <mxCell id="K2zvp9Cle3BON6LFUC2D-50" value="Não&amp;nbsp;" style="edgeLabel;html=1;align=center;verticalAlign=middle;resizable=0;points=[];" vertex="1" connectable="0" parent="K2zvp9Cle3BON6LFUC2D-49">
          <mxGeometry x="-0.3982" relative="1" as="geometry">
            <mxPoint as="offset" />
          </mxGeometry>
        </mxCell>
        <mxCell id="K2zvp9Cle3BON6LFUC2D-45" style="edgeStyle=orthogonalEdgeStyle;rounded=0;orthogonalLoop=1;jettySize=auto;html=1;entryX=1;entryY=0.5;entryDx=0;entryDy=0;entryPerimeter=0;fillColor=#f8cecc;strokeColor=#b85450;" edge="1" parent="K2zvp9Cle3BON6LFUC2D-6">
          <mxGeometry relative="1" as="geometry">
            <mxPoint x="490" y="280" as="sourcePoint" />
            <mxPoint x="360" y="280" as="targetPoint" />
          </mxGeometry>
        </mxCell>
        <mxCell id="K2zvp9Cle3BON6LFUC2D-41" style="edgeStyle=orthogonalEdgeStyle;rounded=0;orthogonalLoop=1;jettySize=auto;html=1;entryX=0;entryY=0.5;entryDx=0;entryDy=0;entryPerimeter=0;" edge="1" parent="K2zvp9Cle3BON6LFUC2D-6" source="K2zvp9Cle3BON6LFUC2D-18" target="K2zvp9Cle3BON6LFUC2D-20">
          <mxGeometry relative="1" as="geometry" />
        </mxCell>
        <mxCell id="K2zvp9Cle3BON6LFUC2D-38" value="" style="edgeStyle=orthogonalEdgeStyle;rounded=0;orthogonalLoop=1;jettySize=auto;html=1;fillColor=#f8cecc;strokeColor=#b85450;" edge="1" parent="K2zvp9Cle3BON6LFUC2D-6" source="K2zvp9Cle3BON6LFUC2D-23" target="K2zvp9Cle3BON6LFUC2D-37">
          <mxGeometry relative="1" as="geometry" />
        </mxCell>
        <mxCell id="K2zvp9Cle3BON6LFUC2D-125" value="Sim" style="edgeLabel;html=1;align=center;verticalAlign=middle;resizable=0;points=[];" vertex="1" connectable="0" parent="K2zvp9Cle3BON6LFUC2D-38">
          <mxGeometry x="0.0541" y="1" relative="1" as="geometry">
            <mxPoint as="offset" />
          </mxGeometry>
        </mxCell>
        <mxCell id="K2zvp9Cle3BON6LFUC2D-66" value="" style="edgeStyle=orthogonalEdgeStyle;rounded=0;orthogonalLoop=1;jettySize=auto;html=1;" edge="1" parent="K2zvp9Cle3BON6LFUC2D-6" source="K2zvp9Cle3BON6LFUC2D-53" target="K2zvp9Cle3BON6LFUC2D-59">
          <mxGeometry relative="1" as="geometry" />
        </mxCell>
        <mxCell id="K2zvp9Cle3BON6LFUC2D-53" value="" style="points=[[0.145,0.145,0],[0.5,0,0],[0.855,0.145,0],[1,0.5,0],[0.855,0.855,0],[0.5,1,0],[0.145,0.855,0],[0,0.5,0]];shape=mxgraph.bpmn.event;html=1;verticalLabelPosition=bottom;labelBackgroundColor=#ffffff;verticalAlign=top;align=center;perimeter=ellipsePerimeter;outlineConnect=0;aspect=fixed;outline=standard;symbol=message;" vertex="1" parent="K2zvp9Cle3BON6LFUC2D-6">
          <mxGeometry x="80" y="95" width="50" height="50" as="geometry" />
        </mxCell>
        <mxCell id="K2zvp9Cle3BON6LFUC2D-80" style="edgeStyle=orthogonalEdgeStyle;rounded=0;orthogonalLoop=1;jettySize=auto;html=1;" edge="1" parent="K2zvp9Cle3BON6LFUC2D-6" source="K2zvp9Cle3BON6LFUC2D-59">
          <mxGeometry relative="1" as="geometry">
            <mxPoint x="160" y="-10" as="targetPoint" />
          </mxGeometry>
        </mxCell>
        <mxCell id="K2zvp9Cle3BON6LFUC2D-59" value="60 minutos" style="points=[[0.145,0.145,0],[0.5,0,0],[0.855,0.145,0],[1,0.5,0],[0.855,0.855,0],[0.5,1,0],[0.145,0.855,0],[0,0.5,0]];shape=mxgraph.bpmn.event;html=1;verticalLabelPosition=bottom;labelBackgroundColor=#ffffff;verticalAlign=top;align=center;perimeter=ellipsePerimeter;outlineConnect=0;aspect=fixed;outline=standard;symbol=timer;" vertex="1" parent="K2zvp9Cle3BON6LFUC2D-6">
          <mxGeometry x="82.5" y="10" width="47.5" height="47.5" as="geometry" />
        </mxCell>
        <mxCell id="K2zvp9Cle3BON6LFUC2D-4" value="notificações&amp;nbsp;" style="swimlane;html=1;startSize=20;horizontal=0;" vertex="1" parent="K2zvp9Cle3BON6LFUC2D-2">
          <mxGeometry y="490" width="1160" height="300" as="geometry" />
        </mxCell>
        <mxCell id="K2zvp9Cle3BON6LFUC2D-28" value="Usuário e/ou Senha Inválida&amp;nbsp;" style="points=[[0.145,0.145,0],[0.5,0,0],[0.855,0.145,0],[1,0.5,0],[0.855,0.855,0],[0.5,1,0],[0.145,0.855,0],[0,0.5,0]];shape=mxgraph.bpmn.event;html=1;verticalLabelPosition=bottom;labelBackgroundColor=#ffffff;verticalAlign=top;align=center;perimeter=ellipsePerimeter;outlineConnect=0;aspect=fixed;outline=standard;symbol=message;" vertex="1" parent="K2zvp9Cle3BON6LFUC2D-4">
          <mxGeometry x="490" y="45" width="50" height="50" as="geometry" />
        </mxCell>
        <mxCell id="K2zvp9Cle3BON6LFUC2D-61" style="edgeStyle=orthogonalEdgeStyle;rounded=0;orthogonalLoop=1;jettySize=auto;html=1;entryX=1;entryY=0.5;entryDx=0;entryDy=0;" edge="1" parent="K2zvp9Cle3BON6LFUC2D-4" source="K2zvp9Cle3BON6LFUC2D-43" target="K2zvp9Cle3BON6LFUC2D-51">
          <mxGeometry relative="1" as="geometry">
            <Array as="points">
              <mxPoint x="280" y="70" />
              <mxPoint x="280" y="70" />
            </Array>
          </mxGeometry>
        </mxCell>
        <mxCell id="K2zvp9Cle3BON6LFUC2D-90" value="Sim" style="edgeLabel;html=1;align=center;verticalAlign=middle;resizable=0;points=[];" vertex="1" connectable="0" parent="K2zvp9Cle3BON6LFUC2D-61">
          <mxGeometry x="-0.3181" y="2" relative="1" as="geometry">
            <mxPoint as="offset" />
          </mxGeometry>
        </mxCell>
        <mxCell id="K2zvp9Cle3BON6LFUC2D-108" style="edgeStyle=orthogonalEdgeStyle;rounded=0;orthogonalLoop=1;jettySize=auto;html=1;" edge="1" parent="K2zvp9Cle3BON6LFUC2D-4" source="K2zvp9Cle3BON6LFUC2D-43" target="K2zvp9Cle3BON6LFUC2D-107">
          <mxGeometry relative="1" as="geometry" />
        </mxCell>
        <mxCell id="K2zvp9Cle3BON6LFUC2D-43" value="Errou 5 Vezes?" style="points=[[0.25,0.25,0],[0.5,0,0],[0.75,0.25,0],[1,0.5,0],[0.75,0.75,0],[0.5,1,0],[0.25,0.75,0],[0,0.5,0]];shape=mxgraph.bpmn.gateway2;html=1;verticalLabelPosition=bottom;labelBackgroundColor=#ffffff;verticalAlign=top;align=center;perimeter=rhombusPerimeter;outlineConnect=0;outline=none;symbol=none;gwType=exclusive;direction=east;" vertex="1" parent="K2zvp9Cle3BON6LFUC2D-4">
          <mxGeometry x="310" y="45" width="50" height="45" as="geometry" />
        </mxCell>
        <mxCell id="K2zvp9Cle3BON6LFUC2D-74" style="edgeStyle=orthogonalEdgeStyle;rounded=0;orthogonalLoop=1;jettySize=auto;html=1;" edge="1" parent="K2zvp9Cle3BON6LFUC2D-4" source="K2zvp9Cle3BON6LFUC2D-51">
          <mxGeometry relative="1" as="geometry">
            <mxPoint x="115" y="-60" as="targetPoint" />
          </mxGeometry>
        </mxCell>
        <mxCell id="K2zvp9Cle3BON6LFUC2D-75" value="Notificar E-mail&amp;nbsp;" style="edgeLabel;html=1;align=center;verticalAlign=middle;resizable=0;points=[];" vertex="1" connectable="0" parent="K2zvp9Cle3BON6LFUC2D-74">
          <mxGeometry x="-0.0448" y="1" relative="1" as="geometry">
            <mxPoint as="offset" />
          </mxGeometry>
        </mxCell>
        <mxCell id="K2zvp9Cle3BON6LFUC2D-51" value="Bloquear Usuário&amp;nbsp;" style="whiteSpace=wrap;html=1;verticalAlign=top;labelBackgroundColor=#ffffff;" vertex="1" parent="K2zvp9Cle3BON6LFUC2D-4">
          <mxGeometry x="55" y="40" width="120" height="60" as="geometry" />
        </mxCell>
        <mxCell id="K2zvp9Cle3BON6LFUC2D-109" style="edgeStyle=orthogonalEdgeStyle;rounded=0;orthogonalLoop=1;jettySize=auto;html=1;entryX=0.5;entryY=1;entryDx=0;entryDy=0;" edge="1" parent="K2zvp9Cle3BON6LFUC2D-4" source="K2zvp9Cle3BON6LFUC2D-107" target="K2zvp9Cle3BON6LFUC2D-51">
          <mxGeometry relative="1" as="geometry" />
        </mxCell>
        <mxCell id="K2zvp9Cle3BON6LFUC2D-110" value="Não&amp;nbsp;" style="edgeLabel;html=1;align=center;verticalAlign=middle;resizable=0;points=[];" vertex="1" connectable="0" parent="K2zvp9Cle3BON6LFUC2D-109">
          <mxGeometry x="-0.2995" y="-2" relative="1" as="geometry">
            <mxPoint as="offset" />
          </mxGeometry>
        </mxCell>
        <mxCell id="K2zvp9Cle3BON6LFUC2D-112" value="" style="edgeStyle=orthogonalEdgeStyle;rounded=0;orthogonalLoop=1;jettySize=auto;html=1;" edge="1" parent="K2zvp9Cle3BON6LFUC2D-4" source="K2zvp9Cle3BON6LFUC2D-107">
          <mxGeometry relative="1" as="geometry">
            <mxPoint x="455" y="200" as="targetPoint" />
          </mxGeometry>
        </mxCell>
        <mxCell id="K2zvp9Cle3BON6LFUC2D-113" value="Sim" style="edgeLabel;html=1;align=center;verticalAlign=middle;resizable=0;points=[];" vertex="1" connectable="0" parent="K2zvp9Cle3BON6LFUC2D-112">
          <mxGeometry x="-0.2747" y="2" relative="1" as="geometry">
            <mxPoint as="offset" />
          </mxGeometry>
        </mxCell>
        <mxCell id="K2zvp9Cle3BON6LFUC2D-107" value="Você Quer Trocar a Senha?" style="points=[[0.25,0.25,0],[0.5,0,0],[0.75,0.25,0],[1,0.5,0],[0.75,0.75,0],[0.5,1,0],[0.25,0.75,0],[0,0.5,0]];shape=mxgraph.bpmn.gateway2;html=1;verticalLabelPosition=bottom;labelBackgroundColor=#ffffff;verticalAlign=top;align=center;perimeter=rhombusPerimeter;outlineConnect=0;outline=none;symbol=none;gwType=exclusive;direction=east;" vertex="1" parent="K2zvp9Cle3BON6LFUC2D-4">
          <mxGeometry x="310" y="160" width="50" height="45" as="geometry" />
        </mxCell>
        <mxCell id="K2zvp9Cle3BON6LFUC2D-119" style="edgeStyle=orthogonalEdgeStyle;rounded=0;orthogonalLoop=1;jettySize=auto;html=1;" edge="1" parent="K2zvp9Cle3BON6LFUC2D-4" source="K2zvp9Cle3BON6LFUC2D-114" target="K2zvp9Cle3BON6LFUC2D-118">
          <mxGeometry relative="1" as="geometry" />
        </mxCell>
        <mxCell id="K2zvp9Cle3BON6LFUC2D-114" value="Enviar Senha Temporária&amp;nbsp;" style="points=[[0.145,0.145,0],[0.5,0,0],[0.855,0.145,0],[1,0.5,0],[0.855,0.855,0],[0.5,1,0],[0.145,0.855,0],[0,0.5,0]];shape=mxgraph.bpmn.event;html=1;verticalLabelPosition=bottom;labelBackgroundColor=#ffffff;verticalAlign=top;align=center;perimeter=ellipsePerimeter;outlineConnect=0;aspect=fixed;outline=standard;symbol=message;" vertex="1" parent="K2zvp9Cle3BON6LFUC2D-4">
          <mxGeometry x="650" y="175" width="50" height="50" as="geometry" />
        </mxCell>
        <mxCell id="K2zvp9Cle3BON6LFUC2D-115" value="Usuário Informar&lt;div&gt;Email&amp;nbsp;&lt;/div&gt;" style="whiteSpace=wrap;html=1;verticalAlign=top;labelBackgroundColor=#ffffff;" vertex="1" parent="K2zvp9Cle3BON6LFUC2D-4">
          <mxGeometry x="455" y="170" width="120" height="60" as="geometry" />
        </mxCell>
        <mxCell id="K2zvp9Cle3BON6LFUC2D-117" style="edgeStyle=orthogonalEdgeStyle;rounded=0;orthogonalLoop=1;jettySize=auto;html=1;entryX=0;entryY=0.5;entryDx=0;entryDy=0;entryPerimeter=0;" edge="1" parent="K2zvp9Cle3BON6LFUC2D-4" source="K2zvp9Cle3BON6LFUC2D-115" target="K2zvp9Cle3BON6LFUC2D-114">
          <mxGeometry relative="1" as="geometry" />
        </mxCell>
        <mxCell id="K2zvp9Cle3BON6LFUC2D-118" value="" style="points=[[0.145,0.145,0],[0.5,0,0],[0.855,0.145,0],[1,0.5,0],[0.855,0.855,0],[0.5,1,0],[0.145,0.855,0],[0,0.5,0]];shape=mxgraph.bpmn.event;html=1;verticalLabelPosition=bottom;labelBackgroundColor=#ffffff;verticalAlign=top;align=center;perimeter=ellipsePerimeter;outlineConnect=0;aspect=fixed;outline=catching;symbol=link;" vertex="1" parent="K2zvp9Cle3BON6LFUC2D-4">
          <mxGeometry x="740" y="80" width="50" height="50" as="geometry" />
        </mxCell>
        <mxCell id="K2zvp9Cle3BON6LFUC2D-124" style="edgeStyle=orthogonalEdgeStyle;rounded=0;orthogonalLoop=1;jettySize=auto;html=1;entryX=0.5;entryY=0;entryDx=0;entryDy=0;entryPerimeter=0;" edge="1" parent="K2zvp9Cle3BON6LFUC2D-2" source="K2zvp9Cle3BON6LFUC2D-123" target="K2zvp9Cle3BON6LFUC2D-23">
          <mxGeometry relative="1" as="geometry" />
        </mxCell>
      </root>
    </mxGraphModel>
  </diagram>
</mxfile>
